<svg width="79" height="77" viewBox="0 0 79 77" fill="none" xmlns="http://www.w3.org/2000/svg">
<circle cx="57.5" cy="34.1567" r="21.5" fill="#D2DE32"/>
<path d="M54.5837 37.5C54.5837 49.6962 44.6966 59.5833 32.5003 59.5833C20.304 59.5833 10.417 49.6962 10.417 37.5C10.417 25.3037 20.304 15.4166 32.5003 15.4166C44.6966 15.4166 54.5837 25.3037 54.5837 37.5Z" stroke="#141B34" stroke-width="3"/>
<path d="M39.125 41.9166C39.125 44.3559 37.1476 46.3333 34.7083 46.3333H32.5C30.4421 46.3333 29.4131 46.3333 28.6015 45.9971C27.5193 45.5488 26.6595 44.689 26.2112 43.6068C25.875 42.7952 25.875 41.7662 25.875 39.7083V35.2916C25.875 33.2337 25.875 32.2048 26.2112 31.3931C26.6595 30.3109 27.5193 29.4511 28.6015 29.0028C29.4131 28.6666 30.4421 28.6666 32.5 28.6666H34.7083C37.1476 28.6666 39.125 30.644 39.125 33.0833" stroke="#141B34" stroke-width="3" stroke-linecap="round"/>
</svg>
