<svg width="79" height="79" viewBox="0 0 79 79" fill="none" xmlns="http://www.w3.org/2000/svg">
<g clip-path="url(#clip0_2007_293)">
<path d="M36.5423 78.7973C34.5324 78.7432 32.5901 78.3317 30.6362 77.8681C27.0976 77.0278 23.729 75.7954 20.5421 74.0452C17.2605 72.2429 14.2727 70.0408 11.6385 67.3981C8.09987 63.8496 5.29369 59.7813 3.30115 55.1645C0.752019 49.2592 -0.301263 43.097 0.0736668 36.6837C0.0987909 36.2394 0.199288 35.797 0.264997 35.3546C0.491114 35.1441 0.777143 35.0591 1.0651 35.0938C2.3619 35.2561 3.67608 34.7326 4.96321 35.204C5.0811 35.2484 5.21832 35.2271 5.34587 35.2117C7.21279 34.9799 9.08744 35.1112 10.9544 35.0649C13.0687 35.0127 15.1733 35.2233 17.2818 35.0958C18.0278 35.0513 18.7699 35.0649 19.2936 35.741C19.5024 36.166 19.4598 36.616 19.4347 37.0661C19.054 43.9296 21.6572 49.4292 27.1749 53.4723C30.2942 55.7595 33.9178 56.8065 37.7773 56.8509C43.409 56.9147 49.0426 56.8702 54.6742 56.8644C55.8879 56.8644 55.9768 56.7717 55.9788 55.5315C55.9846 49.9063 55.9788 44.2792 55.9865 38.654C55.9865 37.694 55.6174 36.7474 55.8821 35.7796C56.1894 35.1441 56.7576 34.9103 57.3973 34.976C59.7107 35.2097 62.026 35.032 64.3393 35.0842C66.3531 35.1286 68.3862 34.8698 70.3672 35.0494C71.8514 35.1846 73.2932 34.9161 74.7639 35.0475C75.7283 35.1344 76.7236 34.9335 77.7131 35.1576C78.2194 35.2735 78.635 35.4184 78.8379 35.9283C79.352 41.3391 78.6504 46.5876 76.9903 51.7666C75.2645 57.1503 72.437 61.8637 68.6877 66.0208C64.9732 70.1412 60.5088 73.2822 55.4241 75.55C51.7753 77.1785 47.9216 78.0343 44.0235 78.7451C43.5558 78.8301 43.0611 78.7799 42.5799 78.7915C40.568 78.8939 38.5581 78.8861 36.5462 78.7954L36.5423 78.7973Z" fill="#0C0C0C"/>
<path d="M78.8356 35.9301C77.7398 35.31 76.5957 35.0222 75.3395 35.3699C74.5742 35.5805 73.8359 35.0976 73.0223 35.3216C72.2608 35.5322 71.3989 35.7988 70.6471 35.1768C69.3213 35.7814 67.8892 34.9256 66.5441 35.4897C65.9643 35.7331 65.3672 35.3255 64.7507 35.339C62.6132 35.3835 60.4737 35.3854 58.3382 35.341C57.5246 35.3236 56.6858 34.9759 56.05 35.7891C55.5881 35.6751 55.6383 35.2521 55.5707 34.9353C54.6218 30.3725 52.2311 26.7254 48.561 23.8877C46.4912 22.2863 44.1411 21.3031 41.6017 20.7448C40.8479 20.5787 40.0903 20.4357 39.3366 20.2735C38.2022 20.1324 37.0677 20.144 35.9333 20.2696C32.9435 20.7892 30.0407 21.4982 27.4741 23.2696C24.7375 25.1588 22.658 27.5445 21.2434 30.5541C20.5805 31.9604 20.0876 33.4015 19.7398 34.9063C19.6663 35.2231 19.6857 35.6404 19.2354 35.7505C18.1608 35.0203 16.9433 35.4202 15.8049 35.3931C14.2279 35.3545 12.6374 35.0531 11.0603 35.4491C10.5946 35.565 10.1791 35.0898 9.77708 35.1941C8.42231 35.5419 7.02888 35.0609 5.68957 35.4472C5.21028 35.5844 4.79283 35.5534 4.31741 35.3158C3.57335 34.945 2.80416 35.594 1.99246 35.3835C1.45132 35.2444 0.84641 35.3583 0.268555 35.3583C0.322668 33.3281 0.830949 31.3655 1.3199 29.4202C2.39058 25.1627 4.18986 21.1988 6.64622 17.5594C7.94302 15.6392 9.32098 13.7616 11.07 12.2046C12.0924 11.5556 13.2133 11.4146 14.4019 11.4957C16.9046 11.6676 19.4132 11.5015 21.9198 11.5594C23.234 11.5903 24.6081 11.5189 25.9454 11.4822C27.1127 11.4513 28.3071 11.5961 29.4899 11.5285C32.6362 11.3489 35.7806 11.5652 38.9269 11.5363C40.5967 11.5208 42.2626 11.4744 43.9363 11.5923C44.8736 11.658 45.8457 11.5324 46.8062 11.5092C49.1737 11.4513 51.5392 11.5266 53.9106 11.4416C56.1099 11.3624 58.3401 11.4474 60.5549 11.5247C62.447 11.5903 64.3429 11.3856 66.2407 11.6155C66.8708 11.6908 67.4447 11.6792 67.8119 12.2993C67.9066 12.4577 68.1289 12.5098 68.3164 12.5601C70.6606 15.166 72.773 17.9303 74.4331 21.0346C76.8218 25.4969 78.1264 30.2837 78.8337 35.2598C78.8646 35.48 78.8376 35.7061 78.8376 35.9301H78.8356Z" fill="#0C0C0C"/>
<path d="M68.3147 12.56C68.1871 12.5639 68.019 12.6218 67.9359 12.56C66.3898 11.4589 64.6234 11.8723 62.9265 11.8163C61.4191 11.7661 59.9039 11.7448 58.4022 11.77C55.5787 11.8182 52.7532 11.683 49.9219 11.8878C48.7468 11.9728 47.4597 11.9554 46.2557 11.7835C45.1096 11.6193 44.0196 11.9342 42.8774 11.8743C39.7659 11.7139 36.6389 11.8955 33.5216 11.7912C31.5078 11.7236 29.4863 12.0694 27.5266 11.8955C26.11 11.77 24.6856 11.8723 23.2729 11.7642C22.293 11.6908 21.2146 11.8163 20.1787 11.8163C17.761 11.8163 15.3433 11.8376 12.9256 11.8028C12.2569 11.7931 11.7428 12.3437 11.0664 12.2007C12.4676 10.5085 14.1799 9.15633 15.9154 7.83889C18.6094 5.79319 21.5354 4.12031 24.674 2.87821C27.5672 1.73076 30.5705 0.894321 33.6608 0.432637C39.9379 -0.504251 46.0586 0.0829942 52.0883 2.09586C57.6408 3.94838 62.4801 6.89814 66.7145 10.9065C67.2749 11.4377 67.7987 11.9902 68.3147 12.5581V12.56Z" fill="#0C0C0C"/>
<path d="M36.542 78.7971C38.5539 78.7971 40.5638 78.7951 42.5757 78.7932C40.5657 79.0675 38.5539 79.0675 36.542 78.7971Z" fill="#94CAF6"/>
<path d="M19.2337 35.7485C19.7497 33.9366 20.171 32.1014 21.0272 30.3938C22.3027 27.8535 23.9087 25.6301 26.2356 23.9205C27.5923 22.9218 28.949 21.9173 30.5183 21.3455C32.2171 20.7274 33.9913 20.2966 35.8021 20.0783C37.0197 19.9837 38.2372 19.9856 39.4529 20.0783C41.8397 20.4782 44.2207 20.9804 46.3407 22.1723C48.687 23.4917 50.6969 25.2264 52.3957 27.3648C54.3863 29.8703 55.3178 32.7698 56.0464 35.7871C56.4349 42.5907 56.1198 49.4 56.2358 56.2055C56.2474 56.9376 56.0116 57.127 55.3004 57.125C49.3846 57.098 43.4669 57.1559 37.5512 57.0903C32.6655 57.0362 28.3461 55.3362 24.848 51.9345C20.5305 47.7349 18.6404 42.5482 19.1796 36.5173C19.2028 36.2624 19.2144 36.0054 19.2318 35.7485H19.2337Z" fill="#FEFEFE"/>
<path d="M39.4544 20.0784C38.2369 20.0784 37.0193 20.0784 35.8037 20.0784C37.0213 19.8137 38.2388 19.8137 39.4544 20.0784Z" fill="#55B7FA"/>
</g>
<defs>
<clipPath id="clip0_2007_293">
<rect width="79" height="79" fill="white"/>
</clipPath>
</defs>
</svg>
