<svg width="14" height="14" viewBox="0 0 14 14" fill="none" xmlns="http://www.w3.org/2000/svg">
<path d="M12.8925 0.296885C12.5025 -0.093115 11.8725 -0.093115 11.4825 0.296885L6.5925 5.17689L1.7025 0.286885C1.3125 -0.103115 0.6825 -0.103115 0.2925 0.286885C-0.0975 0.676885 -0.0975 1.30689 0.2925 1.69689L5.1825 6.58688L0.2925 11.4769C-0.0975 11.8669 -0.0975 12.4969 0.2925 12.8869C0.6825 13.2769 1.3125 13.2769 1.7025 12.8869L6.5925 7.99688L11.4825 12.8869C11.8725 13.2769 12.5025 13.2769 12.8925 12.8869C13.2825 12.4969 13.2825 11.8669 12.8925 11.4769L8.0025 6.58688L12.8925 1.69689C13.2725 1.31689 13.2725 0.676885 12.8925 0.296885Z" fill="#6D758F"/>
</svg>
