<svg width="74" height="75" viewBox="0 0 74 75" fill="none" xmlns="http://www.w3.org/2000/svg">
<g clip-path="url(#clip0_2042_540)">
<path d="M66.8675 8.88641L37.8413 0.178405C37.4348 0.0564172 37.0015 0.0564172 36.5951 0.178405L7.56833 8.88641C7.12178 9.0204 6.73032 9.29478 6.45203 9.66883C6.17374 10.0429 6.02344 10.4967 6.02344 10.9629V42.8922C6.02344 47.0451 7.70477 51.2964 11.0205 55.5278C13.5528 58.7595 17.0564 62.0047 21.4335 65.1732C28.7868 70.496 36.0277 73.7613 36.3324 73.8976C36.611 74.0224 36.9129 74.087 37.2182 74.087C37.5235 74.087 37.8254 74.0224 38.104 73.8976C38.4086 73.7613 45.6493 70.496 53.0026 65.1732C57.3797 62.0047 60.8832 58.7595 63.4156 55.5278C66.7313 51.2965 68.4124 47.0453 68.4124 42.8922V10.9629C68.4124 10.4967 68.2622 10.0428 67.9839 9.66876C67.7056 9.2947 67.3141 9.02034 66.8675 8.88641Z" fill="black"/>
<path d="M25.3027 51.2622V19.9473H33.8043V44.4121H46.4648V51.2622H25.3027Z" fill="white"/>
<rect x="38.7207" y="19.8777" width="8.60465" height="7.74419" fill="white"/>
</g>
<defs>
<clipPath id="clip0_2042_540">
<rect width="74" height="74" fill="white" transform="translate(0 0.0869141)"/>
</clipPath>
</defs>
</svg>
