<svg width="74" height="74" viewBox="0 0 74 74" fill="none" xmlns="http://www.w3.org/2000/svg">
<g clip-path="url(#clip0_2005_495)">
<path d="M66.8675 8.7995L37.8413 0.0914907C37.4348 -0.0304969 37.0015 -0.0304969 36.5951 0.0914907L7.56833 8.7995C7.12178 8.93349 6.73032 9.20786 6.45203 9.58191C6.17374 9.95596 6.02344 10.4098 6.02344 10.876V42.8052C6.02344 46.9582 7.70477 51.2094 11.0205 55.4409C13.5528 58.6726 17.0564 61.9178 21.4335 65.0863C28.7868 70.4091 36.0277 73.6744 36.3324 73.8107C36.611 73.9355 36.9129 74 37.2182 74C37.5235 74 37.8254 73.9355 38.104 73.8107C38.4086 73.6744 45.6493 70.4091 53.0026 65.0863C57.3797 61.9178 60.8832 58.6726 63.4156 55.4409C66.7313 51.2096 68.4124 46.9584 68.4124 42.8052V10.876C68.4124 10.4097 68.2622 9.95591 67.9839 9.58185C67.7056 9.20779 67.3141 8.93343 66.8675 8.7995Z" fill="white"/>
<path d="M25.3027 51.1753V19.8604H33.8043V44.3252H46.4648V51.1753H25.3027Z" fill="#003D35"/>
<rect x="38.7207" y="19.7908" width="8.60465" height="7.74419" fill="#003D35"/>
</g>
<defs>
<clipPath id="clip0_2005_495">
<rect width="74" height="74" fill="white"/>
</clipPath>
</defs>
</svg>
