<svg width="79" height="76" viewBox="0 0 79 76" fill="none" xmlns="http://www.w3.org/2000/svg">
<circle cx="57.5" cy="33.5" r="21.5" fill="#D2DE32"/>
<g clip-path="url(#clip0_2005_410)">
<path d="M23.625 66.0834C24.6895 66.0834 28.6269 64.2864 32.646 60.6925M32.646 60.6925C36.0731 57.6281 39.5596 53.257 41.375 47.5794C45.3194 35.2435 21.6528 47.5794 29.5417 57.8594C30.5123 59.1243 31.5576 60.0487 32.646 60.6925ZM32.646 60.6925C37.3874 63.4974 42.9462 60.9774 46.7123 58.0793C47.8632 57.1937 48.4387 56.7508 48.7822 56.8887C49.1257 57.0266 49.3265 57.8191 49.7282 59.4041C51.0135 64.4766 54.8103 68.5714 59.125 61.9727" stroke="#141B34" stroke-width="3" stroke-linecap="round" stroke-linejoin="round"/>
<path d="M56.167 39.4584L56.167 24.3434C56.167 19.2718 56.167 16.736 55.3743 14.7107C54.0999 11.4548 51.4047 8.88651 47.9879 7.67211C45.8625 6.91672 43.2014 6.91671 37.8791 6.91671C28.5652 6.91671 23.9082 6.91672 20.1888 8.23866C14.2094 10.3639 9.49282 14.8583 7.26259 20.5562C5.87532 24.1004 5.87532 28.5381 5.87532 37.4134L5.87532 45.0376C5.87532 54.2311 5.87532 58.8278 8.3831 62.02C9.10162 62.9346 9.95374 63.7466 10.9136 64.4313C11.9996 65.206 13.2404 65.7295 14.7503 66.0834" stroke="#141B34" stroke-width="3" stroke-linecap="round" stroke-linejoin="round"/>
<path d="M5.87468 36.5C5.87468 31.0539 10.2896 26.6389 15.7358 26.6389C17.7054 26.6389 20.0275 26.984 21.9425 26.4709C23.644 26.015 24.973 24.6859 25.4289 22.9845C25.942 21.0694 25.5969 18.7474 25.5969 16.7778C25.5969 11.3316 30.0119 6.91667 35.458 6.91667" stroke="#141B34" stroke-width="3" stroke-linecap="round" stroke-linejoin="round"/>
</g>
<defs>
<clipPath id="clip0_2005_410">
<rect width="76.0062" height="76.0062" fill="white"/>
</clipPath>
</defs>
</svg>
