<svg width="18" height="20" viewBox="0 0 18 20" fill="none" xmlns="http://www.w3.org/2000/svg">
<g clip-path="url(#clip0_2042_220)">
<path d="M18.0001 15.3731C17.9653 15.5714 17.9322 15.9752 17.822 16.3575C16.8876 19.6036 12.7672 20.6785 10.3107 18.3028C7.46483 15.551 4.6473 12.772 1.81747 10.0045C1.77361 9.96161 1.72869 9.91768 1.69339 9.86798C1.55486 9.67289 1.57465 9.43437 1.73885 9.26961C1.90625 9.10119 2.17367 9.07765 2.37156 9.22306C2.4566 9.2853 2.52934 9.36428 2.60475 9.43803C5.37789 12.1496 8.15103 14.8621 10.9242 17.5736C11.8056 18.4356 12.8715 18.7971 14.0947 18.5795C15.4826 18.3326 16.4357 17.525 16.8571 16.2079C17.2818 14.8815 16.9652 13.6832 15.9634 12.6956C13.5336 10.3011 11.0889 7.92222 8.6495 5.53656C7.54024 4.45174 6.43313 3.36483 5.32066 2.28368C4.6719 1.65339 3.88355 1.41331 2.99304 1.59586C2.02392 1.7941 1.36767 2.38044 1.08207 3.30625C0.78523 4.26658 1.03821 5.11655 1.76024 5.82372C4.80829 8.80932 7.86008 11.7918 10.9113 14.7742C11.5649 15.4134 12.5164 15.4417 13.1331 14.8428C13.762 14.2313 13.7385 13.3024 13.0737 12.6517C11.5435 11.1531 10.0117 9.65562 8.48049 8.15812C7.67395 7.36935 6.86474 6.58267 6.06195 5.79024C5.75763 5.49001 5.85497 5.05064 6.23577 4.96224C6.47377 4.90732 6.64065 5.0203 6.8011 5.17774C9.13085 7.46036 11.4644 9.73931 13.7941 12.0219C14.798 13.0058 14.8098 14.5326 13.8294 15.4971C12.8405 16.4695 11.2723 16.4601 10.2572 15.4683C7.18618 12.4681 4.11567 9.46785 1.04944 6.46342C-0.337397 5.10452 -0.349163 2.96417 1.01093 1.6173C2.37317 0.268343 4.5751 0.231729 5.96354 1.58121C9.56086 5.07732 13.1432 8.58754 16.7218 12.102C17.5781 12.943 17.9792 13.987 18.0001 15.3731Z" fill="white"/>
<path d="M18.0001 15.3731C17.9792 13.987 17.5781 12.943 16.7218 12.1019C13.1438 8.5875 9.56086 5.07727 5.96407 1.58117C4.5751 0.231161 2.3737 0.268298 1.01093 1.61726C-0.349163 2.96413 -0.337397 5.10447 1.04944 6.46285C4.11567 9.46728 7.18618 12.4675 10.2572 15.4678C11.2723 16.4595 12.8405 16.4689 13.8294 15.4965C14.8103 14.532 14.7985 13.0052 13.7941 12.0214C11.4644 9.73875 9.13085 7.45979 6.8011 5.17718C6.64065 5.01974 6.47377 4.90676 6.23577 4.96168C5.85497 5.05007 5.75763 5.48944 6.06195 5.78967C6.86474 6.5821 7.67395 7.36878 8.48049 8.15755C10.0117 9.65506 11.5435 11.1526 13.0737 12.6511C13.7385 13.3018 13.762 14.2307 13.1331 14.8422C12.5164 15.4411 11.5654 15.4129 10.9113 14.7737C7.86008 11.7907 4.80829 8.80875 1.76024 5.82315C1.03821 5.11598 0.78523 4.26601 1.08207 3.30568C1.3682 2.37987 2.02392 1.79353 2.99304 1.59529C3.88355 1.41274 4.6719 1.65283 5.32066 2.28311C6.43313 3.36426 7.54024 4.45117 8.6495 5.53599C11.0884 7.92113 13.5336 10.3005 15.9634 12.6951C16.9657 13.6826 17.2818 14.8809 16.8571 16.2074C16.4357 17.5244 15.4826 18.332 14.0947 18.5789C12.8715 18.7965 11.8056 18.4351 10.9242 17.5731C8.1505 14.8616 5.37789 12.1495 2.60475 9.43747C2.52934 9.36372 2.4566 9.28473 2.37156 9.22249C2.17367 9.07708 1.90625 9.10062 1.73885 9.26904C1.57465 9.4338 1.55486 9.67232 1.69339 9.86742C1.72869 9.91711 1.77361 9.96052 1.81747 10.0039C4.64677 12.7714 7.46483 15.5509 10.3107 18.3022C12.7678 20.6779 16.8882 19.6031 17.822 16.357C17.9322 15.9746 17.9653 15.5713 18.0001 15.3726V15.3731Z" fill="#C1C1C1"/>
</g>
<defs>
<clipPath id="clip0_2042_220">
<rect width="18" height="19" fill="white" transform="translate(0 0.586914)"/>
</clipPath>
</defs>
</svg>
