<svg width="76" height="74" viewBox="0 0 76 74" fill="none" xmlns="http://www.w3.org/2000/svg">
<circle cx="54.5" cy="31.5" r="21.5" fill="#D2DE32"/>
<path d="M45.81 35.75L53.4334 42.2967C55.0361 43.673 55.8374 44.3611 56.5103 45.1374C57.5875 46.3801 58.4288 47.7971 58.9953 49.3228C59.3491 50.2759 59.5594 51.2916 59.9799 53.323C60.4032 55.3677 60.5 59.125 60.5 60.5M20.1915 35.75L12.5681 42.2967C10.9654 43.673 10.164 44.3611 9.49115 45.1374C8.41396 46.3801 7.57269 47.7971 7.00621 49.3228C6.65234 50.2759 6.44207 51.2916 6.02154 53.323C5.59825 55.3677 5.5 59.125 5.5 60.5" stroke="#141B34" stroke-width="3" stroke-linecap="round"/>
<path d="M45.375 30.2501C45.375 37.8441 39.8345 44.0001 33 44.0001C26.1655 44.0001 20.625 37.8439 20.625 30.25M45.375 30.2501C45.375 24.5914 43.2225 17.6213 38.5 17.6213C36.3475 17.6213 35.75 20.6248 33 20.6248C30.25 20.6248 29.6519 17.6212 27.5 17.6212C22.777 17.6212 20.625 24.591 20.625 30.25M45.375 30.2501V33C45.375 36.0376 47.8374 38.5 50.875 38.5C53.9126 38.5 56.375 36.0376 56.375 33C56.375 31.1508 55.4624 29.5147 54.0629 28.5176C55.4813 27.2582 56.375 25.421 56.375 23.375C56.375 19.578 53.297 16.5 49.5 16.5C49.5 10.4249 42.625 5.5 33 5.5C23.375 5.5 16.5 10.4249 16.5 16.5C12.703 16.5 9.625 19.578 9.625 23.375C9.625 25.421 10.5187 27.2582 11.9371 28.5176C10.5376 29.5147 9.625 31.1508 9.625 33C9.625 36.0376 12.0874 38.5 15.125 38.5C18.1626 38.5 20.625 36.0376 20.625 33V30.25" stroke="#141B34" stroke-width="3" stroke-linejoin="round"/>
<path d="M38.58 44L41.7119 53.2607C43.663 59.0302 42.7468 60.5 36.4182 60.5H29.5818C23.2532 60.5 22.337 59.0302 24.2881 53.2607L27.42 44" stroke="#141B34" stroke-width="3" stroke-linecap="round"/>
</svg>
