<svg width="78" height="74" viewBox="0 0 78 74" fill="none" xmlns="http://www.w3.org/2000/svg">
<circle cx="56.5" cy="36.5" r="21.5" fill="#D2DE32"/>
<path d="M56.2039 58.8852H55.861V56.8067C55.8606 55.8553 55.6227 54.9192 55.169 54.083C54.7153 53.2468 54.0601 52.5371 53.2628 52.0182V22.3861C53.6631 22.4672 54.0703 22.5089 54.4787 22.5108C56.9125 22.5108 59.2467 21.5439 60.9677 19.823C62.6886 18.102 63.6555 15.7679 63.6555 13.334C63.6555 10.9002 62.6886 8.56607 60.9677 6.84509C59.2467 5.12412 56.9125 4.15729 54.4787 4.15729H18.268C17.0489 4.16401 15.8432 4.41228 14.7206 4.88776C13.598 5.36323 12.5808 6.05647 11.7277 6.92741C10.8747 7.79836 10.2027 8.82973 9.75059 9.96194C9.2985 11.0941 9.07528 12.3047 9.09384 13.5237C9.09992 14.7156 9.34179 15.8944 9.80551 16.9924C10.2692 18.0904 10.9456 19.0857 11.7958 19.9211C12.6459 20.7565 13.6529 21.4154 14.7588 21.8599C15.8647 22.3043 17.0476 22.5255 18.2394 22.5108C18.6583 22.5094 19.076 22.4667 19.4865 22.3835V52.0312C18.6892 52.5501 18.034 53.2598 17.5803 54.096C17.1266 54.9321 16.8888 55.8683 16.8884 56.8196V58.8982H16.5454C15.2609 58.8996 14.0292 59.4095 13.1196 60.3166C12.2101 61.2237 11.6968 62.4541 11.692 63.7386V67.9814C11.692 68.3259 11.8289 68.6564 12.0725 68.9C12.3161 69.1436 12.6466 69.2805 12.9911 69.2805H59.7582C60.1027 69.2805 60.4332 69.1436 60.6768 68.9C60.9204 68.6564 61.0573 68.3259 61.0573 67.9814V63.7386C61.0559 62.4518 60.5441 61.2181 59.6343 60.3082C58.7244 59.3984 57.4907 58.8866 56.2039 58.8852ZM18.0809 19.9126C17.2278 19.9059 16.3844 19.7298 15.5999 19.3945C14.8154 19.0591 14.1053 18.5713 13.5109 17.9592C12.9165 17.3472 12.4496 16.6231 12.1374 15.8291C11.8251 15.0351 11.6737 14.187 11.692 13.334C11.6941 11.5906 12.3876 9.91918 13.6204 8.6864C14.8531 7.45361 16.5246 6.76012 18.268 6.75806H54.4787C56.2235 6.75806 57.8968 7.45116 59.1305 8.68488C60.3642 9.9186 61.0573 11.5919 61.0573 13.3366C61.0573 15.0814 60.3642 16.7547 59.1305 17.9884C57.8968 19.2221 56.2235 19.9152 54.4787 19.9152C53.4451 19.9042 52.4582 19.483 51.7351 18.7443C51.012 18.0057 50.612 17.01 50.623 15.9764C50.6341 14.9428 51.0552 13.9559 51.7939 13.2328C52.5326 12.5097 53.5282 12.1097 54.5619 12.1207C54.9064 12.1207 55.2368 12.2576 55.4805 12.5012C55.7241 12.7448 55.861 13.0752 55.861 13.4198C55.861 13.7643 55.7241 14.0947 55.4805 14.3384C55.2368 14.582 54.9064 14.7189 54.5619 14.7189C54.2173 14.7189 53.8869 14.8557 53.6433 15.0994C53.3996 15.343 53.2628 15.6734 53.2628 16.0179C53.2628 16.3625 53.3996 16.6929 53.6433 16.9365C53.8869 17.1802 54.2173 17.317 54.5619 17.317C55.0737 17.3116 55.5794 17.2054 56.0501 17.0045C56.5209 16.8036 56.9474 16.5119 57.3055 16.1462C57.6635 15.7804 57.946 15.3477 58.1368 14.8728C58.3276 14.3979 58.423 13.89 58.4176 13.3782C58.4121 12.8664 58.3059 12.3607 58.105 11.89C57.9041 11.4192 57.6124 10.9926 57.2467 10.6346C56.8809 10.2766 56.4482 9.99408 55.9733 9.80327C55.4984 9.61245 54.9905 9.51706 54.4787 9.52251C53.485 9.52423 52.5056 9.76042 51.6203 10.2119C50.735 10.6633 49.9687 11.3173 49.3837 12.1207H23.3838C22.78 11.3126 21.9957 10.6569 21.0935 10.2058C20.1913 9.75467 19.1962 9.52069 18.1874 9.52251C17.1538 9.52251 16.1625 9.93312 15.4317 10.664C14.7008 11.3949 14.2902 12.3862 14.2902 13.4198C14.2902 14.4534 14.7008 15.4447 15.4317 16.1756C16.1625 16.9064 17.1538 17.317 18.1874 17.317C18.532 17.317 18.8624 17.1802 19.106 16.9365C19.3497 16.6929 19.4865 16.3625 19.4865 16.0179C19.4865 15.6734 19.3497 15.343 19.106 15.0994C18.8624 14.8557 18.532 14.7189 18.1874 14.7189C17.8429 14.7189 17.5125 14.582 17.2689 14.3384C17.0252 14.0947 16.8884 13.7643 16.8884 13.4198C16.8909 13.2428 16.9291 13.0682 17.0005 12.9063C17.072 12.7444 17.1752 12.5985 17.3042 12.4773C17.4331 12.3561 17.5851 12.2621 17.7512 12.2008C17.9172 12.1396 18.0938 12.1123 18.2706 12.1207C19.3042 12.1458 20.2855 12.5806 20.9986 13.3292C21.7117 14.0779 22.0982 15.0792 22.073 16.1128C22.0479 17.1464 21.6131 18.1277 20.8645 18.8408C20.1158 19.5539 19.1145 19.9378 18.0809 19.9126ZM22.0847 51.0907V21.1987C22.8973 20.5832 23.5552 19.7867 24.0063 18.8725C24.4573 17.9583 24.6889 16.9516 24.6829 15.9322C24.6806 15.5239 24.6397 15.1168 24.5608 14.7163H48.2041C48.1122 15.1704 48.0652 15.6325 48.0638 16.0959C48.067 17.0938 48.3037 18.0771 48.7548 18.9672C49.206 19.8573 49.8591 20.6295 50.662 21.2221V51.1011H22.0847V51.0907ZM19.4865 56.8067C19.4913 55.9785 19.8235 55.186 20.4105 54.6018C20.9976 54.0177 21.7918 53.6895 22.6199 53.6889H50.1294C50.9575 53.6895 51.7518 54.0177 52.3388 54.6018C52.9258 55.186 53.258 55.9785 53.2628 56.8067V58.8852H19.4865V56.8067ZM58.4591 66.6797H14.2902V63.7386C14.2909 63.1409 14.5288 62.568 14.9516 62.1456C15.3745 61.7232 15.9477 61.486 16.5454 61.486H56.2039C56.8016 61.486 57.3748 61.7232 57.7977 62.1456C58.2205 62.568 58.4584 63.1409 58.4591 63.7386V66.6797Z" fill="#1B1E21"/>
<path d="M36.3749 19.9127C36.0303 19.9127 35.6999 20.0495 35.4563 20.2932C35.2126 20.5368 35.0758 20.8672 35.0758 21.2117V47.1935C35.0758 47.538 35.2126 47.8684 35.4563 48.1121C35.6999 48.3557 36.0303 48.4926 36.3749 48.4926C36.7194 48.4926 37.0498 48.3557 37.2934 48.1121C37.5371 47.8684 37.6739 47.538 37.6739 47.1935V21.2117C37.6739 20.8672 37.5371 20.5368 37.2934 20.2932C37.0498 20.0495 36.7194 19.9127 36.3749 19.9127ZM44.1694 25.109C43.8248 25.109 43.4944 25.2459 43.2508 25.4895C43.0072 25.7331 42.8703 26.0635 42.8703 26.4081V47.1935C42.8703 47.538 43.0072 47.8684 43.2508 48.1121C43.4944 48.3557 43.8248 48.4926 44.1694 48.4926C44.5139 48.4926 44.8443 48.3557 45.088 48.1121C45.3316 47.8684 45.4685 47.538 45.4685 47.1935V26.4081C45.4685 26.0635 45.3316 25.7331 45.088 25.4895C44.8443 25.2459 44.5139 25.109 44.1694 25.109ZM28.5803 25.109C28.2358 25.109 27.9054 25.2459 27.6617 25.4895C27.4181 25.7331 27.2812 26.0635 27.2812 26.4081V47.1935C27.2812 47.538 27.4181 47.8684 27.6617 48.1121C27.9054 48.3557 28.2358 48.4926 28.5803 48.4926C28.9249 48.4926 29.2553 48.3557 29.4989 48.1121C29.7426 47.8684 29.8794 47.538 29.8794 47.1935V26.4081C29.8794 26.0635 29.7426 25.7331 29.4989 25.4895C29.2553 25.2459 28.9249 25.109 28.5803 25.109Z" fill="#1B1E21"/>
</svg>
