<svg width="37" height="37" viewBox="0 0 37 37" fill="none" xmlns="http://www.w3.org/2000/svg">
<circle cx="18.5" cy="18.5" r="18.5" fill="#003D35"/>
<path d="M16.8487 20.7308V20.4305C16.8487 19.7422 16.9029 19.1937 17.0114 18.785C17.1198 18.3762 17.2804 18.0487 17.4931 17.8026C17.7059 17.5524 17.9666 17.3271 18.2752 17.1269C18.5422 16.9517 18.7799 16.7828 18.9885 16.6201C19.2012 16.4574 19.3681 16.2843 19.489 16.1008C19.6142 15.9173 19.6767 15.7087 19.6767 15.4751C19.6767 15.2666 19.6267 15.083 19.5266 14.9245C19.4265 14.766 19.2909 14.643 19.1199 14.5554C18.9489 14.4678 18.7591 14.424 18.5505 14.424C18.3253 14.424 18.1167 14.4761 17.9248 14.5804C17.7371 14.6847 17.5849 14.8286 17.4681 15.0121C17.3555 15.1957 17.2992 15.4084 17.2992 15.6503H14.0957C14.104 14.7327 14.3126 13.9881 14.7214 13.4167C15.1302 12.841 15.6724 12.4197 16.3481 12.1528C17.0239 11.8817 17.7663 11.7461 18.5755 11.7461C19.4682 11.7461 20.2649 11.8775 20.9656 12.1403C21.6664 12.3989 22.2191 12.791 22.6237 13.3165C23.0283 13.8379 23.2306 14.4907 23.2306 15.2749C23.2306 15.7796 23.143 16.2239 22.9678 16.6076C22.7968 16.9872 22.5569 17.323 22.2483 17.6149C21.9438 17.9028 21.5871 18.1655 21.1784 18.4033C20.878 18.5785 20.6257 18.7599 20.4213 18.9476C20.2169 19.1312 20.0626 19.3418 19.9583 19.5796C19.854 19.8131 19.8019 20.0968 19.8019 20.4305V20.7308H16.8487ZM18.3753 24.9354C17.8915 24.9354 17.4764 24.7664 17.1302 24.4286C16.7882 24.0865 16.6193 23.6715 16.6234 23.1835C16.6193 22.7079 16.7882 22.3013 17.1302 21.9634C17.4764 21.6255 17.8915 21.4566 18.3753 21.4566C18.8342 21.4566 19.2388 21.6255 19.5891 21.9634C19.9437 22.3013 20.1231 22.7079 20.1272 23.1835C20.1231 23.5088 20.0375 23.805 19.8707 24.0719C19.708 24.3347 19.4953 24.5453 19.2325 24.7039C18.9697 24.8582 18.684 24.9354 18.3753 24.9354Z" fill="#D2DE32"/>
</svg>
