<svg width="76" height="75" viewBox="0 0 76 75" fill="none" xmlns="http://www.w3.org/2000/svg">
<circle cx="54.5" cy="32.1567" r="21.5" fill="#D2DE32"/>
<g clip-path="url(#clip0_2006_241)">
<path d="M32.5 13.2084V64.9167M32.5 64.9167H23.375M32.5 64.9167H41.625" stroke="#141B34" stroke-width="3" stroke-linecap="round" stroke-linejoin="round"/>
<path d="M59.8743 37.5417L52.2702 22.3334L44.666 37.5417" stroke="#141B34" stroke-width="3" stroke-linecap="round" stroke-linejoin="round"/>
<path d="M20.3333 37.5417L12.7292 22.3334L5.125 37.5417" stroke="#141B34" stroke-width="3" stroke-linecap="round" stroke-linejoin="round"/>
<path d="M8.16602 22.3334H11.3543C15.1973 22.3334 18.9259 20.7243 21.9268 17.7709C28.1079 11.6875 36.8908 11.6875 43.0719 17.7709C46.0728 20.7243 49.8014 22.3334 53.6444 22.3334H56.8327" stroke="#141B34" stroke-width="3" stroke-linecap="round" stroke-linejoin="round"/>
<path d="M52.2708 49.7084C56.3914 49.7084 59.9797 47.1725 61.8438 43.4269C62.8498 41.4054 63.3528 40.3946 62.4346 38.9682C61.5164 37.5417 59.9967 37.5417 56.9573 37.5417H47.5844C44.545 37.5417 43.0253 37.5417 42.1071 38.9682C41.1889 40.3946 41.6919 41.4054 42.6979 43.4269C44.562 47.1725 48.1502 49.7084 52.2708 49.7084Z" stroke="#141B34" stroke-width="3"/>
<path d="M12.7288 49.7084C16.8494 49.7084 20.4377 47.1725 22.3018 43.4269C23.3078 41.4054 23.8108 40.3946 22.8926 38.9682C21.9744 37.5417 20.4547 37.5417 17.4153 37.5417H8.0424C5.00301 37.5417 3.48332 37.5417 2.56509 38.9682C1.64686 40.3946 2.14988 41.4054 3.15591 43.4269C5.01998 47.1725 8.60825 49.7084 12.7288 49.7084Z" stroke="#141B34" stroke-width="3"/>
<path d="M37.0625 8.64587C37.0625 11.1657 35.0198 13.2084 32.5 13.2084C29.9802 13.2084 27.9375 11.1657 27.9375 8.64587C27.9375 6.12607 29.9802 4.08337 32.5 4.08337C35.0198 4.08337 37.0625 6.12607 37.0625 8.64587Z" stroke="#141B34" stroke-width="3"/>
</g>
<defs>
<clipPath id="clip0_2006_241">
<rect width="73.8346" height="73.8346" fill="white" transform="translate(0 0.656738)"/>
</clipPath>
</defs>
</svg>
